<svg xmlns="http://www.w3.org/2000/svg" viewBox="0 0 2781 2336.42"><defs><style>.cls-1{fill:#fff;stroke-width:51px;}.cls-1,.cls-2,.cls-3{stroke:#222;stroke-linecap:round;stroke-linejoin:round;}.cls-2{fill:#222;}.cls-2,.cls-3{stroke-width:19px;}.cls-3{fill:#231f20;}</style></defs><title>cerberus-logo-white-on-transparent</title><g id="Layer_2" data-name="Layer 2"><g id="Layer_7" data-name="Layer 7"><path class="cls-1" d="M2130.5,2293.41c9.87-.06,19.62-2.5,29.23-4.93L2309,2250.81c4-1,8.36-2.2,11.13-5.43,2-2.32,2.89-5.39,3.75-8.36,49.06-170.27,96-342.13,150.28-510.7,5.47-18.58,11-37.3,20-54.32,12.06-22.76,29.87-41.56,47.44-60l213.88-225-112.41-151.12c-5.4-7.26-10.91-14.72-13.64-23.45-8.41-26.82,11.12-53.24,22.68-78.77,20.17-44.54,16.62-96.22,12.65-145.26l-26.25-323.9L2370.37,924c-6.24,6-12.66,12.2-20.55,15.57-11.47,4.89-24.42,3.24-36.7,1.52-58.77-8.26-119.67-19.75-180-21-62.05-1.24-123.92,12.34-185.23,21-12.28,1.73-25.24,3.37-36.7-1.52-7.89-3.36-14.31-9.53-20.55-15.57L1622.48,664.47l-26.25,323.9c-4,49-7.53,100.73,12.65,145.26,11.56,25.52,31.09,51.94,22.68,78.77-2.74,8.73-8.24,16.18-13.64,23.45L1505.5,1387l213.88,225c17.58,18.49,35.38,37.29,47.44,60,9,17,14.56,35.75,20,54.32,20.86,86.45,50.59,171.63,75.71,256.87,25,84.66,50.4,169.19,74.62,254.08,1,3.39,2,7,4.57,9.34,2.3,2.16,5.45,3,8.46,3.75L2103.4,2289c8.31,2.09,16.69,4.2,25.24,4.42Z"/><polygon class="cls-2" points="2056.8 1446.17 1721.44 1303.2 1865.73 1519.96 2056.8 1446.17"/><polygon class="cls-2" points="2204.2 1446.17 2539.56 1303.2 2395.27 1519.96 2204.2 1446.17"/><polygon class="cls-3" points="2262.32 2170.86 2130.82 2115.06 1999.32 2170.86 1999.32 2183.69 2130.82 2127.62 2262.32 2183.69 2262.32 2170.86"/><path class="cls-1" d="M650.5,2293.41c9.87-.06,19.62-2.5,29.23-4.93L829,2250.81c4-1,8.36-2.2,11.13-5.43,2-2.32,2.89-5.39,3.75-8.36,49.06-170.27,96-342.13,150.28-510.7,5.47-18.58,11-37.3,20-54.32,12.06-22.76,29.87-41.56,47.44-60l213.88-225-112.41-151.12c-5.4-7.26-10.91-14.72-13.64-23.45-8.41-26.82,11.12-53.24,22.68-78.77,20.17-44.54,16.62-96.22,12.65-145.26l-26.25-323.9L890.37,924c-6.24,6-12.66,12.2-20.55,15.57-11.47,4.89-24.42,3.24-36.7,1.52-58.77-8.26-119.67-19.75-180-21-62.05-1.24-123.92,12.34-185.23,21-12.28,1.73-25.24,3.37-36.7-1.52-7.89-3.36-14.31-9.53-20.55-15.57L142.48,664.47l-26.25,323.9c-4,49-7.53,100.73,12.65,145.26,11.56,25.52,31.09,51.94,22.68,78.77-2.74,8.73-8.24,16.18-13.64,23.45L25.5,1387l213.88,225c17.58,18.49,35.38,37.29,47.44,60,9,17,14.56,35.75,20,54.32,20.86,86.45,50.59,171.63,75.71,256.87,25,84.66,50.4,169.19,74.62,254.08,1,3.39,2,7,4.57,9.34,2.3,2.16,5.45,3,8.46,3.75L623.4,2289c8.31,2.09,16.69,4.2,25.24,4.42Z"/><polygon class="cls-2" points="576.79 1446.17 241.44 1303.2 385.73 1519.96 576.79 1446.17"/><polygon class="cls-2" points="724.21 1446.17 1059.56 1303.2 915.27 1519.96 724.21 1446.17"/><polygon class="cls-3" points="782.32 2170.86 650.82 2115.06 519.32 2170.86 519.32 2183.69 650.82 2127.62 782.32 2183.69 782.32 2170.86"/><path class="cls-1" d="M1387.76,2310.92c13.85-.08,27.52-3.51,41-6.91l209.42-52.86c5.68-1.43,11.73-3.09,15.61-7.62,2.78-3.25,4.06-7.56,5.26-11.73,68.83-238.89,134.76-480,210.85-716.52,7.68-26.06,15.45-52.34,28.11-76.21,16.93-31.93,41.91-58.31,66.56-84.24l300.07-315.65-157.72-212c-7.58-10.19-15.3-20.65-19.14-32.89-11.79-37.63,15.6-74.7,31.82-110.51,28.3-62.49,23.32-135,17.75-203.81L2100.52,25.5,1724.3,389.66c-8.75,8.47-17.76,17.12-28.83,21.84-16.09,6.86-34.26,4.55-51.49,2.13-82.46-11.59-167.9-27.71-252.54-29.4-87.06-1.74-173.86,17.31-259.88,29.4-17.23,2.42-35.41,4.73-51.49-2.13-11.07-4.72-20.08-13.37-28.83-21.84L675,25.5,638.16,479.94c-5.58,68.81-10.56,141.32,17.75,203.81,16.22,35.81,43.61,72.88,31.82,110.51-3.84,12.24-11.56,22.7-19.14,32.89l-157.72,212,300.07,315.65c24.66,25.94,49.64,52.32,66.56,84.24,12.66,23.88,20.42,50.15,28.11,76.21,29.27,121.28,71,240.8,106.22,360.39,35,118.79,70.72,237.38,104.69,356.48,1.36,4.76,2.86,9.77,6.42,13.1,3.22,3,7.64,4.19,11.87,5.26l214.92,54.18c11.65,2.94,23.42,5.89,35.41,6.2Q1386.45,2310.93,1387.76,2310.92Z"/><polygon class="cls-2" points="1284.35 1122.24 813.84 921.65 1016.29 1225.76 1284.35 1122.24"/><polygon class="cls-2" points="1491.17 1122.24 1961.68 921.65 1759.23 1225.76 1491.17 1122.24"/><polygon class="cls-3" points="1572.32 2138.98 1387.82 2060.7 1203.32 2138.98 1203.32 2156.98 1387.82 2078.32 1572.32 2156.98 1572.32 2138.98"/></g></g></svg>