<svg xmlns="http://www.w3.org/2000/svg" viewBox="0 0 22.44 21.89"><defs><style>.cls-1{fill:#f2f2f2;}</style></defs><title>github-offwhite</title><g id="Layer_2" data-name="Layer 2"><g id="Layer_1-2" data-name="Layer 1"><path class="cls-1" d="M11.22,0A11.22,11.22,0,0,0,7.67,21.86c.56.1.77-.24.77-.54s0-1.15,0-2.09c-3.12.68-3.78-1.32-3.78-1.32A3,3,0,0,0,3.4,16.27c-1-.7.08-.68.08-.68a2.36,2.36,0,0,1,1.72,1.16,2.39,2.39,0,0,0,3.27.93,2.4,2.4,0,0,1,.71-1.5c-2.49-.28-5.11-1.25-5.11-5.55a4.35,4.35,0,0,1,1.15-3,4,4,0,0,1,.11-3s.94-.3,3.09,1.15a10.62,10.62,0,0,1,5.62,0c2.14-1.45,3.08-1.15,3.08-1.15a4,4,0,0,1,.11,3,4.33,4.33,0,0,1,1.15,3c0,4.31-2.62,5.26-5.12,5.54A2.67,2.67,0,0,1,14,18.25c0,1.5,0,2.71,0,3.08s.2.65.77.54A11.22,11.22,0,0,0,11.22,0Z"/></g></g></svg>