<svg xmlns="http://www.w3.org/2000/svg" viewBox="0 0 147.24 146.38"><defs><style>.cls-1{fill:#f2f2f2;}</style></defs><title>slack-offwhite</title><g id="Layer_2" data-name="Layer 2"><g id="Layer_1-2" data-name="Layer 1"><path class="cls-1" d="M12.53,77.49A12.17,12.17,0,0,1,.67,69.14c-.07-.2-.12-.39-.18-.58A12.76,12.76,0,0,1,8.75,53L113,18.06a14.13,14.13,0,0,1,3.81-.56A12.49,12.49,0,0,1,129,26l.16.5c1.95,6.82-2.89,12.9-8.7,14.85L16.77,76.77a13.49,13.49,0,0,1-4.23.72Z"/><path class="cls-1" d="M29.91,128.75A12.16,12.16,0,0,1,18,120.53c-.06-.19-.12-.38-.18-.58a12.85,12.85,0,0,1,8.25-15.74L130.32,69a13.42,13.42,0,0,1,4.14-.69,12.6,12.6,0,0,1,12.15,8.44l.16.53a13.19,13.19,0,0,1-1.59,10.6c-1.49,2.32-6.2,4.37-6.2,4.37L34.34,128a14.36,14.36,0,0,1-4.43.76Z"/><path class="cls-1" d="M116.68,129a12.8,12.8,0,0,1-12.25-8.72L69.64,16.91l-.17-.58a12.81,12.81,0,0,1,24.47-7.6l34.79,103.33.1.33A12.8,12.8,0,0,1,116.68,129Z"/><path class="cls-1" d="M65,146.38a12.8,12.8,0,0,1-12.26-8.73L17.93,34.31l-.18-.58A12.8,12.8,0,0,1,26,18.08a13,13,0,0,1,4-.67,12.8,12.8,0,0,1,12.26,8.72L77,129.48c.07.18.12.38.18.57A12.81,12.81,0,0,1,65,146.38h0Z"/><path class="cls-1" d="M99.53,105.7l24.26-8.29-7.93-23.55L91.57,82.07Z"/><path class="cls-1" d="M47.9,123.36l24.26-8.29-8-23.73L39.89,99.54Z"/><path class="cls-1" d="M82.26,54.41l24.26-8.28L98.69,22.85,74.38,31Z"/><path class="cls-1" d="M30.62,72l24.26-8.28L47,40.18,22.65,48.32l8,23.71Z"/></g></g></svg>