<svg xmlns="http://www.w3.org/2000/svg" viewBox="0 0 20.18 25.78"><defs><style>.cls-1{fill:#f2f2f2;}</style></defs><title>stack-overflow-offwhite</title><g id="Layer_2" data-name="Layer 2"><g id="Layer_1-2" data-name="Layer 1"><path class="cls-1" d="M0,20.46v5.32H16.77V15.11l-.87.1-.9.1-.1,4.42-.1,4.45H1.61v-9H0v5.32Zm2.9.81v1H13.22V20.3H2.9v1Zm.15-3.81-.1,1,10.26,1.12.21-1.92L3.16,16.5l-.1,1Zm.77-4.55-.25.93,10,2.68.5-1.87L4.08,12Zm2.12-5.3-.52.82,8.73,5.49,1-1.64L6.46,6.79Zm4.94-4.94-.8.55,5.85,8.5,1.59-1.1-5.85-8.5-.8.55ZM17.33.18l-1,.18L18.28,10.5l1.9-.35L18.29,0l-1,.18Z"/></g></g></svg>