<svg version="1.1" xmlns="http://www.w3.org/2000/svg" xmlns:xlink="http://www.w3.org/1999/xlink" width="600" height="397.5"><style xmlns="http://www.w3.org/1999/xhtml"></style><defs/><g transform="translate(0,0)"><g><rect fill="rgb(0,0,0)" stroke="none" x="0" y="0" width="600" height="397.5" fill-opacity="0"/></g><g transform="matrix(1,0,0,1,434,1)"><g transform="translate(148,-14) matrix(1,0,0,1,0,0) translate(-148,14)"><g><rect fill="rgb(0,0,0)" stroke="none" x="0" y="0" width="147" height="1" fill-opacity="0"/></g></g><g transform="translate(148,-14) matrix(1,0,0,1,0,0) translate(-148,14)"><g/></g><g transform="translate(148,-14) matrix(1,0,0,1,0,0) translate(-148,14)"><g/></g><g transform="translate(148,-14) matrix(1,0,0,1,0,0) translate(-148,14)"><g/></g><g transform="translate(148,-14) matrix(1,0,0,1,0,0) translate(-148,14)"><g/></g></g><g transform="translate(0,0) matrix(1,0,0,1,291,11.25)"><g><g transform="translate(0,0) scale(1.1800000000000002,0.375)"><g><path fill="none" stroke="none" d="M 10 0 L 90 0 Q 100 0 100 10 L 100 90 Q 100 100 90 100 L 10 100 Q 0 100 0 90 L 0 10 Q 0 0 10 0 Z"/><g transform="scale(0.8474576271186439,2.6666666666666665)"><path fill="#b6d7a8" stroke="none" d="M 10 0 L 108.00000000000001 0 Q 118.00000000000001 0 118.00000000000001 10 L 118.00000000000001 27.5 Q 118.00000000000001 37.5 108.00000000000001 37.5 L 10 37.5 Q 0 37.5 0 27.5 L 0 10 Q 0 0 10 0 Z"/><path fill="none" stroke="rgb(0,0,0)" d="M 10 0 M 10 0 L 108.00000000000001 0 Q 118.00000000000001 0 118.00000000000001 10 L 118.00000000000001 27.5 Q 118.00000000000001 37.5 108.00000000000001 37.5 L 10 37.5 Q 0 37.5 0 27.5 L 0 10 Q 0 0 10 0 Z" stroke-opacity="0" stroke-miterlimit="10" stroke-width="2"/></g></g></g></g></g><g transform="matrix(1,0,0,1,295,23)"><g transform="translate(108,-4) matrix(1,0,0,1,0,0) translate(-108,4)"><g><rect fill="rgb(0,0,0)" stroke="none" x="0" y="0" width="110" height="14" fill-opacity="0"/></g></g><g transform="translate(108,-4) matrix(1,0,0,1,0,0) translate(-108,4)"><g><rect fill="rgb(0,0,0)" stroke="none" x="0" y="0" width="110" height="14" fill-opacity="0"/></g></g><g transform="translate(108,-4) matrix(1,0,0,1,0,0) translate(-108,4)"><g><rect fill="rgb(0,0,0)" stroke="none" x="54" y="-2" width="4" height="16" fill-opacity="0"/></g></g><g transform="translate(108,-4) matrix(1,0,0,1,0,0) translate(-108,4)"><g><rect fill="rgb(0,0,0)" stroke="none" x="54" y="-2" width="4" height="16" fill-opacity="0"/></g><text fill="rgb(0, 0, 0)" stroke="none" font-family="Helvetica" font-size="14px" font-style="normal" font-weight="bold" text-decoration="" line-height="14px" x="54" y="11">/</text></g></g><g transform="matrix(1,0,0,1,194,43.75)"><g transform="translate(0,0)"><g transform="translate(-217,-51.5) translate(23,7.75) matrix(1,0,0,1,0,0)"><g><path fill="none" stroke="#ff9900" d="M 350 48.75 L 350 75.625 Q 350 85.625 340 85.625 L 209 85.625 Q 199 85.625 199 95.625 L 199 122.5" stroke-miterlimit="10" stroke-width="3"/></g></g></g></g><g transform="matrix(1,0,0,1,345,43.75)"><g transform="translate(0,0)"><g transform="translate(61,-45.5) translate(-406,1.75) matrix(1,0,0,1,0,0)"><g><path fill="none" stroke="#ff9900" d="M 350 48.75 L 350 75.625 Q 350 85.625 360 85.625 L 499 85.625 Q 509 85.625 509 95.625 L 509 122.5" stroke-miterlimit="10" stroke-width="3"/></g></g></g></g><g transform="translate(0,0) matrix(1,0,0,1,140,122.5)"><g><g transform="translate(0,0) scale(1.1800000000000002,0.375)"><g><path fill="none" stroke="none" d="M 10 0 L 90 0 Q 100 0 100 10 L 100 90 Q 100 100 90 100 L 10 100 Q 0 100 0 90 L 0 10 Q 0 0 10 0 Z"/><g transform="scale(0.8474576271186439,2.6666666666666665)"><path fill="#b6d7a8" stroke="none" d="M 10 0 L 108.00000000000001 0 Q 118.00000000000001 0 118.00000000000001 10 L 118.00000000000001 27.5 Q 118.00000000000001 37.5 108.00000000000001 37.5 L 10 37.5 Q 0 37.5 0 27.5 L 0 10 Q 0 0 10 0 Z"/><path fill="none" stroke="rgb(0,0,0)" d="M 10 0 M 10 0 L 108.00000000000001 0 Q 118.00000000000001 0 118.00000000000001 10 L 118.00000000000001 27.5 Q 118.00000000000001 37.5 108.00000000000001 37.5 L 10 37.5 Q 0 37.5 0 27.5 L 0 10 Q 0 0 10 0 Z" stroke-opacity="0" stroke-miterlimit="10" stroke-width="2"/></g></g></g></g></g><g transform="matrix(1,0,0,1,144,134)"><g transform="translate(82,-4) matrix(1,0,0,1,0,0) translate(-82,4)"><g><rect fill="rgb(0,0,0)" stroke="none" x="0" y="0" width="110" height="14" fill-opacity="0"/></g></g><g transform="translate(82,-4) matrix(1,0,0,1,0,0) translate(-82,4)"><g><rect fill="rgb(0,0,0)" stroke="none" x="0" y="0" width="110" height="14" fill-opacity="0"/></g></g><g transform="translate(82,-4) matrix(1,0,0,1,0,0) translate(-82,4)"><g><rect fill="rgb(0,0,0)" stroke="none" x="41" y="-2" width="28" height="16" fill-opacity="0"/></g></g><g transform="translate(82,-4) matrix(1,0,0,1,0,0) translate(-82,4)"><g><rect fill="rgb(0,0,0)" stroke="none" x="41" y="-2" width="28" height="16" fill-opacity="0"/></g><text fill="rgb(0, 0, 0)" stroke="none" font-family="Helvetica" font-size="14px" font-style="normal" font-weight="bold" text-decoration="" line-height="14px" x="41" y="11">app</text><text fill="rgb(0, 0, 0)" stroke="none" font-family="Helvetica" font-size="14px" font-style="normal" font-weight="bold" text-decoration="" line-height="14px" x="65" y="11">/</text></g></g><g transform="translate(0,0) matrix(1,0,0,1,450,122.5)"><g><g transform="translate(0,0) scale(1.1800000000000002,0.375)"><g><path fill="none" stroke="none" d="M 10 0 L 90 0 Q 100 0 100 10 L 100 90 Q 100 100 90 100 L 10 100 Q 0 100 0 90 L 0 10 Q 0 0 10 0 Z"/><g transform="scale(0.8474576271186439,2.6666666666666665)"><path fill="#b6d7a8" stroke="none" d="M 10 0 L 108.00000000000001 0 Q 118.00000000000001 0 118.00000000000001 10 L 118.00000000000001 27.5 Q 118.00000000000001 37.5 108.00000000000001 37.5 L 10 37.5 Q 0 37.5 0 27.5 L 0 10 Q 0 0 10 0 Z"/><path fill="none" stroke="rgb(0,0,0)" d="M 10 0 M 10 0 L 108.00000000000001 0 Q 118.00000000000001 0 118.00000000000001 10 L 118.00000000000001 27.5 Q 118.00000000000001 37.5 108.00000000000001 37.5 L 10 37.5 Q 0 37.5 0 27.5 L 0 10 Q 0 0 10 0 Z" stroke-opacity="0" stroke-miterlimit="10" stroke-width="2"/></g></g></g></g></g><g transform="matrix(1,0,0,1,454,134)"><g transform="translate(60,-4) matrix(1,0,0,1,0,0) translate(-60,4)"><g><rect fill="rgb(0,0,0)" stroke="none" x="0" y="0" width="110" height="14" fill-opacity="0"/></g></g><g transform="translate(60,-4) matrix(1,0,0,1,0,0) translate(-60,4)"><g><rect fill="rgb(0,0,0)" stroke="none" x="0" y="0" width="110" height="14" fill-opacity="0"/></g></g><g transform="translate(60,-4) matrix(1,0,0,1,0,0) translate(-60,4)"><g><rect fill="rgb(0,0,0)" stroke="none" x="30" y="-2" width="50" height="16" fill-opacity="0"/></g></g><g transform="translate(60,-4) matrix(1,0,0,1,0,0) translate(-60,4)"><g><rect fill="rgb(0,0,0)" stroke="none" x="30" y="-2" width="50" height="16" fill-opacity="0"/></g><text fill="rgb(0, 0, 0)" stroke="none" font-family="Helvetica" font-size="14px" font-style="normal" font-weight="bold" text-decoration="" line-height="14px" x="30" y="11">shared</text><text fill="rgb(0, 0, 0)" stroke="none" font-family="Helvetica" font-size="14px" font-style="normal" font-weight="bold" text-decoration="" line-height="14px" x="76" y="11">/</text></g></g><g transform="matrix(1,0,0,1,64,155)"><g transform="translate(0,0)"><g transform="translate(-166,-207.5) translate(102,52.5) matrix(1,0,0,1,0,0)"><g><path fill="none" stroke="#ff9900" d="M 174.5613998199874 160 L 174.5613998199874 185 Q 174.5613998199874 195 164.5613998199874 195 L 79 195 Q 69 195 69 205 L 69 230" stroke-miterlimit="10" stroke-width="3"/></g></g></g></g><g transform="translate(0,0) matrix(1,0,0,1,9.999999999999993,230)"><g><g transform="translate(0,0) scale(1.1800000000000002,0.375)"><g><path fill="none" stroke="none" d="M 10 0 L 90 0 Q 100 0 100 10 L 100 90 Q 100 100 90 100 L 10 100 Q 0 100 0 90 L 0 10 Q 0 0 10 0 Z"/><g transform="scale(0.8474576271186439,2.6666666666666665)"><path fill="#b6d7a8" stroke="none" d="M 10 0 L 108.00000000000001 0 Q 118.00000000000001 0 118.00000000000001 10 L 118.00000000000001 27.5 Q 118.00000000000001 37.5 108.00000000000001 37.5 L 10 37.5 Q 0 37.5 0 27.5 L 0 10 Q 0 0 10 0 Z"/><path fill="none" stroke="rgb(0,0,0)" d="M 10 0 M 10 0 L 108.00000000000001 0 Q 118.00000000000001 0 118.00000000000001 10 L 118.00000000000001 27.5 Q 118.00000000000001 37.5 108.00000000000001 37.5 L 10 37.5 Q 0 37.5 0 27.5 L 0 10 Q 0 0 10 0 Z" stroke-opacity="0" stroke-miterlimit="10" stroke-width="2"/></g></g></g></g></g><g transform="matrix(1,0,0,1,14,242)"><g transform="translate(20,-4) matrix(1,0,0,1,0,0) translate(-20,4)"><g><rect fill="rgb(0,0,0)" stroke="none" x="0" y="0" width="110" height="14" fill-opacity="0"/></g></g><g transform="translate(20,-4) matrix(1,0,0,1,0,0) translate(-20,4)"><g><rect fill="rgb(0,0,0)" stroke="none" x="0" y="0" width="110" height="14" fill-opacity="0"/></g></g><g transform="translate(20,-4) matrix(1,0,0,1,0,0) translate(-20,4)"><g><rect fill="rgb(0,0,0)" stroke="none" x="10" y="-2" width="90" height="16" fill-opacity="0"/></g></g><g transform="translate(20,-4) matrix(1,0,0,1,0,0) translate(-20,4)"><g><rect fill="rgb(0,0,0)" stroke="none" x="10" y="-2" width="90" height="16" fill-opacity="0"/></g><text fill="rgb(0, 0, 0)" stroke="none" font-family="Helvetica" font-size="14px" font-style="normal" font-weight="bold" text-decoration="" line-height="14px" x="10" y="11">myapp</text><text fill="rgb(0, 0, 0)" stroke="none" font-family="Helvetica" font-size="14px" font-style="normal" font-weight="bold" text-decoration="" line-height="14px" x="55" y="11">-</text><text fill="rgb(0, 0, 0)" stroke="none" font-family="Helvetica" font-size="14px" font-style="normal" font-weight="bold" text-decoration="" line-height="14px" x="60" y="11">name</text><text fill="rgb(0, 0, 0)" stroke="none" font-family="Helvetica" font-size="14px" font-style="normal" font-weight="bold" text-decoration="" line-height="14px" x="96" y="11">/</text></g></g><g transform="matrix(1,0,0,1,218.43860018001263,155)"><g transform="translate(0,0)"><g transform="translate(65.43860018001263,-245.5) translate(-283.87720036002526,90.5) matrix(1,0,0,1,0,0)"><g><path fill="none" stroke="#ff9900" d="M 223.43860018001263 160 L 223.43860018001263 185 Q 223.43860018001263 195 233.43860018001263 195 L 321 195 Q 331 195 331 205 L 331 230" stroke-miterlimit="10" stroke-width="3"/></g></g></g></g><g transform="translate(0,0) matrix(1,0,0,1,272,230)"><g><g transform="translate(0,0) scale(1.1800000000000002,0.375)"><g><path fill="none" stroke="none" d="M 10 0 L 90 0 Q 100 0 100 10 L 100 90 Q 100 100 90 100 L 10 100 Q 0 100 0 90 L 0 10 Q 0 0 10 0 Z"/><g transform="scale(0.8474576271186439,2.6666666666666665)"><path fill="#b6d7a8" stroke="none" d="M 10 0 L 108.00000000000001 0 Q 118.00000000000001 0 118.00000000000001 10 L 118.00000000000001 27.5 Q 118.00000000000001 37.5 108.00000000000001 37.5 L 10 37.5 Q 0 37.5 0 27.5 L 0 10 Q 0 0 10 0 Z"/><path fill="none" stroke="rgb(0,0,0)" d="M 10 0 M 10 0 L 108.00000000000001 0 Q 118.00000000000001 0 118.00000000000001 10 L 118.00000000000001 27.5 Q 118.00000000000001 37.5 108.00000000000001 37.5 L 10 37.5 Q 0 37.5 0 27.5 L 0 10 Q 0 0 10 0 Z" stroke-opacity="0" stroke-miterlimit="10" stroke-width="2"/></g></g></g></g></g><g transform="matrix(1,0,0,1,276,242)"><g transform="translate(26,-4) matrix(1,0,0,1,0,0) translate(-26,4)"><g><rect fill="rgb(0,0,0)" stroke="none" x="0" y="0" width="110" height="14" fill-opacity="0"/></g></g><g transform="translate(26,-4) matrix(1,0,0,1,0,0) translate(-26,4)"><g><rect fill="rgb(0,0,0)" stroke="none" x="0" y="0" width="110" height="14" fill-opacity="0"/></g></g><g transform="translate(26,-4) matrix(1,0,0,1,0,0) translate(-26,4)"><g><rect fill="rgb(0,0,0)" stroke="none" x="13" y="-2" width="85" height="16" fill-opacity="0"/></g></g><g transform="translate(26,-4) matrix(1,0,0,1,0,0) translate(-26,4)"><g><rect fill="rgb(0,0,0)" stroke="none" x="13" y="-2" width="85" height="16" fill-opacity="0"/></g><text fill="rgb(0, 0, 0)" stroke="none" font-family="Helvetica" font-size="14px" font-style="normal" font-weight="bold" text-decoration="" line-height="14px" x="13" y="11">another</text><text fill="rgb(0, 0, 0)" stroke="none" font-family="Helvetica" font-size="14px" font-style="normal" font-weight="bold" text-decoration="" line-height="14px" x="64" y="11">-</text><text fill="rgb(0, 0, 0)" stroke="none" font-family="Helvetica" font-size="14px" font-style="normal" font-weight="bold" text-decoration="" line-height="14px" x="69" y="11">app</text><text fill="rgb(0, 0, 0)" stroke="none" font-family="Helvetica" font-size="14px" font-style="normal" font-weight="bold" text-decoration="" line-height="14px" x="94" y="11">/</text></g></g><g transform="translate(0,0) matrix(1,0,0,1,450,230)"><g><g transform="translate(0,0) scale(1.1800000000000002,0.375)"><g><path fill="none" stroke="none" d="M 10 0 L 90 0 Q 100 0 100 10 L 100 90 Q 100 100 90 100 L 10 100 Q 0 100 0 90 L 0 10 Q 0 0 10 0 Z"/><g transform="scale(0.8474576271186439,2.6666666666666665)"><path fill="#b6d7a8" stroke="none" d="M 10 0 L 108.00000000000001 0 Q 118.00000000000001 0 118.00000000000001 10 L 118.00000000000001 27.5 Q 118.00000000000001 37.5 108.00000000000001 37.5 L 10 37.5 Q 0 37.5 0 27.5 L 0 10 Q 0 0 10 0 Z"/><path fill="none" stroke="rgb(0,0,0)" d="M 10 0 M 10 0 L 108.00000000000001 0 Q 118.00000000000001 0 118.00000000000001 10 L 118.00000000000001 27.5 Q 118.00000000000001 37.5 108.00000000000001 37.5 L 10 37.5 Q 0 37.5 0 27.5 L 0 10 Q 0 0 10 0 Z" stroke-opacity="0" stroke-miterlimit="10" stroke-width="2"/></g></g></g></g></g><g transform="matrix(1,0,0,1,454,242)"><g transform="translate(48,-4) matrix(1,0,0,1,0,0) translate(-48,4)"><g><rect fill="rgb(0,0,0)" stroke="none" x="0" y="0" width="110" height="14" fill-opacity="0"/></g></g><g transform="translate(48,-4) matrix(1,0,0,1,0,0) translate(-48,4)"><g><rect fill="rgb(0,0,0)" stroke="none" x="0" y="0" width="110" height="14" fill-opacity="0"/></g></g><g transform="translate(48,-4) matrix(1,0,0,1,0,0) translate(-48,4)"><g><rect fill="rgb(0,0,0)" stroke="none" x="24" y="-2" width="63" height="16" fill-opacity="0"/></g></g><g transform="translate(48,-4) matrix(1,0,0,1,0,0) translate(-48,4)"><g><rect fill="rgb(0,0,0)" stroke="none" x="24" y="-2" width="63" height="16" fill-opacity="0"/></g><text fill="rgb(0, 0, 0)" stroke="none" font-family="Helvetica" font-size="14px" font-style="normal" font-weight="bold" text-decoration="" line-height="14px" x="24" y="11">onelogin</text><text fill="rgb(0, 0, 0)" stroke="none" font-family="Helvetica" font-size="14px" font-style="normal" font-weight="bold" text-decoration="" line-height="14px" x="83" y="11">/</text></g></g><g transform="matrix(1,0,0,1,504,155)"><g transform="translate(0,0)"><g transform="translate(91,-55.5) translate(-595,-99.5) matrix(1,0,0,1,0,0)"><g><path fill="none" stroke="#ff9900" d="M 509 230 L 509 216.66666666666666 Q 509 206.66666666666666 509 196.66666666666666 L 509 193.33333333333334 Q 509 183.33333333333334 509 173.33333333333334 L 509 160" stroke-miterlimit="10" stroke-width="3"/></g></g></g></g><g transform="translate(0,0) matrix(1,0,0,1,450,340)"><g><g transform="translate(0,0) scale(1.1800000000000002,0.375)"><g><path fill="none" stroke="none" d="M 10 0 L 90 0 Q 100 0 100 10 L 100 90 Q 100 100 90 100 L 10 100 Q 0 100 0 90 L 0 10 Q 0 0 10 0 Z"/><g transform="scale(0.8474576271186439,2.6666666666666665)"><path fill="#b6d7a8" stroke="none" d="M 10 0 L 108.00000000000001 0 Q 118.00000000000001 0 118.00000000000001 10 L 118.00000000000001 27.5 Q 118.00000000000001 37.5 108.00000000000001 37.5 L 10 37.5 Q 0 37.5 0 27.5 L 0 10 Q 0 0 10 0 Z"/><path fill="none" stroke="rgb(0,0,0)" d="M 10 0 M 10 0 L 108.00000000000001 0 Q 118.00000000000001 0 118.00000000000001 10 L 118.00000000000001 27.5 Q 118.00000000000001 37.5 108.00000000000001 37.5 L 10 37.5 Q 0 37.5 0 27.5 L 0 10 Q 0 0 10 0 Z" stroke-opacity="0" stroke-miterlimit="10" stroke-width="2"/></g></g></g></g></g><g transform="matrix(1,0,0,1,454,352)"><g transform="translate(70,-4) matrix(1,0,0,1,0,0) translate(-70,4)"><g><rect fill="rgb(0,0,0)" stroke="none" x="0" y="0" width="110" height="14" fill-opacity="0"/></g></g><g transform="translate(70,-4) matrix(1,0,0,1,0,0) translate(-70,4)"><g><rect fill="rgb(0,0,0)" stroke="none" x="0" y="0" width="110" height="14" fill-opacity="0"/></g></g><g transform="translate(70,-4) matrix(1,0,0,1,0,0) translate(-70,4)"><g><rect fill="rgb(0,0,0)" stroke="none" x="35" y="-2" width="42" height="16" fill-opacity="0"/></g></g><g transform="translate(70,-4) matrix(1,0,0,1,0,0) translate(-70,4)"><g><rect fill="rgb(0,0,0)" stroke="none" x="35" y="-2" width="42" height="16" fill-opacity="0"/></g><text fill="rgb(0, 0, 0)" stroke="none" font-family="Helvetica" font-size="14px" font-style="normal" font-weight="bold" text-decoration="" line-height="14px" x="35" y="11">config</text></g></g><g transform="translate(0,0) matrix(1,0,0,1,9.999999999999993,340)"><g><g transform="translate(0,0) scale(1.1800000000000002,0.375)"><g><path fill="none" stroke="none" d="M 10 0 L 90 0 Q 100 0 100 10 L 100 90 Q 100 100 90 100 L 10 100 Q 0 100 0 90 L 0 10 Q 0 0 10 0 Z"/><g transform="scale(0.8474576271186439,2.6666666666666665)"><path fill="#b6d7a8" stroke="none" d="M 10 0 L 108.00000000000001 0 Q 118.00000000000001 0 118.00000000000001 10 L 118.00000000000001 27.5 Q 118.00000000000001 37.5 108.00000000000001 37.5 L 10 37.5 Q 0 37.5 0 27.5 L 0 10 Q 0 0 10 0 Z"/><path fill="none" stroke="rgb(0,0,0)" d="M 10 0 M 10 0 L 108.00000000000001 0 Q 118.00000000000001 0 118.00000000000001 10 L 118.00000000000001 27.5 Q 118.00000000000001 37.5 108.00000000000001 37.5 L 10 37.5 Q 0 37.5 0 27.5 L 0 10 Q 0 0 10 0 Z" stroke-opacity="0" stroke-miterlimit="10" stroke-width="2"/></g></g></g></g></g><g transform="matrix(1,0,0,1,14,352)"><g transform="translate(92,-4) matrix(1,0,0,1,0,0) translate(-92,4)"><g><rect fill="rgb(0,0,0)" stroke="none" x="0" y="0" width="110" height="14" fill-opacity="0"/></g></g><g transform="translate(92,-4) matrix(1,0,0,1,0,0) translate(-92,4)"><g><rect fill="rgb(0,0,0)" stroke="none" x="0" y="0" width="110" height="14" fill-opacity="0"/></g></g><g transform="translate(92,-4) matrix(1,0,0,1,0,0) translate(-92,4)"><g><rect fill="rgb(0,0,0)" stroke="none" x="46" y="-2" width="17" height="16" fill-opacity="0"/></g></g><g transform="translate(92,-4) matrix(1,0,0,1,0,0) translate(-92,4)"><g><rect fill="rgb(0,0,0)" stroke="none" x="46" y="-2" width="17" height="16" fill-opacity="0"/></g><text fill="rgb(0, 0, 0)" stroke="none" font-family="Helvetica" font-size="14px" font-style="normal" font-weight="bold" text-decoration="" line-height="14px" x="46" y="11">db</text></g></g><g transform="matrix(1,0,0,1,64,262.5)"><g transform="translate(0,0)"><g transform="translate(-176,-217.5) translate(112,-45) matrix(1,0,0,1,0,0)"><g><path fill="none" stroke="#ff9900" d="M 69 340 L 69 325.8333333333333 Q 69 315.8333333333333 69 305.8333333333333 L 69 301.6666666666667 Q 69 291.6666666666667 69 281.6666666666667 L 69 267.5" stroke-miterlimit="10" stroke-width="3"/></g></g></g></g><g transform="translate(0,0) matrix(1,0,0,1,272,340)"><g><g transform="translate(0,0) scale(1.1800000000000002,0.375)"><g><path fill="none" stroke="none" d="M 10 0 L 90 0 Q 100 0 100 10 L 100 90 Q 100 100 90 100 L 10 100 Q 0 100 0 90 L 0 10 Q 0 0 10 0 Z"/><g transform="scale(0.8474576271186439,2.6666666666666665)"><path fill="#b6d7a8" stroke="none" d="M 10 0 L 108.00000000000001 0 Q 118.00000000000001 0 118.00000000000001 10 L 118.00000000000001 27.5 Q 118.00000000000001 37.5 108.00000000000001 37.5 L 10 37.5 Q 0 37.5 0 27.5 L 0 10 Q 0 0 10 0 Z"/><path fill="none" stroke="rgb(0,0,0)" d="M 10 0 M 10 0 L 108.00000000000001 0 Q 118.00000000000001 0 118.00000000000001 10 L 118.00000000000001 27.5 Q 118.00000000000001 37.5 108.00000000000001 37.5 L 10 37.5 Q 0 37.5 0 27.5 L 0 10 Q 0 0 10 0 Z" stroke-opacity="0" stroke-miterlimit="10" stroke-width="2"/></g></g></g></g></g><g transform="matrix(1,0,0,1,276,352)"><g transform="translate(98,-4) matrix(1,0,0,1,0,0) translate(-98,4)"><g><rect fill="rgb(0,0,0)" stroke="none" x="0" y="0" width="110" height="14" fill-opacity="0"/></g></g><g transform="translate(98,-4) matrix(1,0,0,1,0,0) translate(-98,4)"><g><rect fill="rgb(0,0,0)" stroke="none" x="0" y="0" width="110" height="14" fill-opacity="0"/></g></g><g transform="translate(98,-4) matrix(1,0,0,1,0,0) translate(-98,4)"><g><rect fill="rgb(0,0,0)" stroke="none" x="49" y="-2" width="12" height="16" fill-opacity="0"/></g></g><g transform="translate(98,-4) matrix(1,0,0,1,0,0) translate(-98,4)"><g><rect fill="rgb(0,0,0)" stroke="none" x="49" y="-2" width="12" height="16" fill-opacity="0"/></g><text fill="rgb(0, 0, 0)" stroke="none" font-family="Helvetica" font-size="14px" font-style="normal" font-weight="bold" text-decoration="" line-height="14px" x="49" y="11">...</text></g></g><g transform="matrix(1,0,0,1,504,262.5)"><g transform="translate(0,0)"><g transform="translate(81,-65.5) translate(-585,-197) matrix(1,0,0,1,0,0)"><g><path fill="none" stroke="#ff9900" d="M 509 267.5 L 509 281.6666666666667 Q 509 291.6666666666667 509 301.6666666666667 L 509 305.8333333333333 Q 509 315.8333333333333 509 325.8333333333333 L 509 340" stroke-miterlimit="10" stroke-width="3"/></g></g></g></g><g transform="matrix(1,0,0,1,326,262.5)"><g transform="translate(0,0)"><g transform="translate(242,-80.5) translate(-568,-182) matrix(1,0,0,1,0,0)"><g><path fill="none" stroke="#ff9900" d="M 331 267.5 L 331 281.6666666666667 Q 331 291.6666666666667 331 301.6666666666667 L 331 305.8333333333333 Q 331 315.8333333333333 331 325.8333333333333 L 331 340" stroke-miterlimit="10" stroke-width="3"/></g></g></g></g></g></svg>