<svg version="1.1" xmlns="http://www.w3.org/2000/svg" xmlns:xlink="http://www.w3.org/1999/xlink" width="600" height="287.5"><style xmlns="http://www.w3.org/1999/xhtml"></style><defs/><g transform="translate(0,0)"><g><rect fill="rgb(0,0,0)" stroke="none" x="0" y="0" width="600" height="287.5" fill-opacity="0"/></g><g transform="matrix(1,0,0,1,434,1)"><g transform="translate(148,-14) matrix(1,0,0,1,0,0) translate(-148,14)"><g><rect fill="rgb(0,0,0)" stroke="none" x="0" y="0" width="147" height="1" fill-opacity="0"/></g></g><g transform="translate(148,-14) matrix(1,0,0,1,0,0) translate(-148,14)"><g/></g><g transform="translate(148,-14) matrix(1,0,0,1,0,0) translate(-148,14)"><g/></g><g transform="translate(148,-14) matrix(1,0,0,1,0,0) translate(-148,14)"><g/></g><g transform="translate(148,-14) matrix(1,0,0,1,0,0) translate(-148,14)"><g/></g></g><g transform="translate(0,0) matrix(1,0,0,1,9.999999999999993,112.5)"><g><g transform="translate(0,0) scale(1.1800000000000002,0.375)"><g><path fill="none" stroke="none" d="M 10 0 L 90 0 Q 100 0 100 10 L 100 90 Q 100 100 90 100 L 10 100 Q 0 100 0 90 L 0 10 Q 0 0 10 0 Z"/><g transform="scale(0.8474576271186439,2.6666666666666665)"><path fill="#b6d7a8" stroke="none" d="M 10 0 L 108.00000000000001 0 Q 118.00000000000001 0 118.00000000000001 10 L 118.00000000000001 27.5 Q 118.00000000000001 37.5 108.00000000000001 37.5 L 10 37.5 Q 0 37.5 0 27.5 L 0 10 Q 0 0 10 0 Z"/><path fill="none" stroke="rgb(0,0,0)" d="M 10 0 M 10 0 L 108.00000000000001 0 Q 118.00000000000001 0 118.00000000000001 10 L 118.00000000000001 27.5 Q 118.00000000000001 37.5 108.00000000000001 37.5 L 10 37.5 Q 0 37.5 0 27.5 L 0 10 Q 0 0 10 0 Z" stroke-opacity="0" stroke-miterlimit="10" stroke-width="2"/></g></g></g></g></g><g transform="matrix(1,0,0,1,14,124)"><g transform="translate(56,-4) matrix(1,0,0,1,0,0) translate(-56,4)"><g><rect fill="rgb(0,0,0)" stroke="none" x="0" y="0" width="110" height="14" fill-opacity="0"/></g></g><g transform="translate(56,-4) matrix(1,0,0,1,0,0) translate(-56,4)"><g><rect fill="rgb(0,0,0)" stroke="none" x="0" y="0" width="110" height="14" fill-opacity="0"/></g></g><g transform="translate(56,-4) matrix(1,0,0,1,0,0) translate(-56,4)"><g><rect fill="rgb(0,0,0)" stroke="none" x="28" y="-2" width="55" height="16" fill-opacity="0"/></g></g><g transform="translate(56,-4) matrix(1,0,0,1,0,0) translate(-56,4)"><g><rect fill="rgb(0,0,0)" stroke="none" x="28" y="-2" width="55" height="16" fill-opacity="0"/></g><text fill="rgb(0, 0, 0)" stroke="none" font-family="Helvetica" font-size="14px" font-style="normal" font-weight="bold" text-decoration="" line-height="14px" x="28" y="11">db_user</text></g></g><g transform="translate(0,0) matrix(1,0,0,1,190,112.5)"><g><g transform="translate(0,0) scale(1.1800000000000002,0.375)"><g><path fill="none" stroke="none" d="M 10 0 L 90 0 Q 100 0 100 10 L 100 90 Q 100 100 90 100 L 10 100 Q 0 100 0 90 L 0 10 Q 0 0 10 0 Z"/><g transform="scale(0.8474576271186439,2.6666666666666665)"><path fill="#b6d7a8" stroke="none" d="M 10 0 L 108.00000000000001 0 Q 118.00000000000001 0 118.00000000000001 10 L 118.00000000000001 27.5 Q 118.00000000000001 37.5 108.00000000000001 37.5 L 10 37.5 Q 0 37.5 0 27.5 L 0 10 Q 0 0 10 0 Z"/><path fill="none" stroke="rgb(0,0,0)" d="M 10 0 M 10 0 L 108.00000000000001 0 Q 118.00000000000001 0 118.00000000000001 10 L 118.00000000000001 27.5 Q 118.00000000000001 37.5 108.00000000000001 37.5 L 10 37.5 Q 0 37.5 0 27.5 L 0 10 Q 0 0 10 0 Z" stroke-opacity="0" stroke-miterlimit="10" stroke-width="2"/></g></g></g></g></g><g transform="matrix(1,0,0,1,194,124)"><g transform="translate(24,-4) matrix(1,0,0,1,0,0) translate(-24,4)"><g><rect fill="rgb(0,0,0)" stroke="none" x="0" y="0" width="110" height="14" fill-opacity="0"/></g></g><g transform="translate(24,-4) matrix(1,0,0,1,0,0) translate(-24,4)"><g><rect fill="rgb(0,0,0)" stroke="none" x="0" y="0" width="110" height="14" fill-opacity="0"/></g></g><g transform="translate(24,-4) matrix(1,0,0,1,0,0) translate(-24,4)"><g><rect fill="rgb(0,0,0)" stroke="none" x="12" y="-2" width="87" height="16" fill-opacity="0"/></g></g><g transform="translate(24,-4) matrix(1,0,0,1,0,0) translate(-24,4)"><g><rect fill="rgb(0,0,0)" stroke="none" x="12" y="-2" width="87" height="16" fill-opacity="0"/></g><text fill="rgb(0, 0, 0)" stroke="none" font-family="Helvetica" font-size="14px" font-style="normal" font-weight="bold" text-decoration="" line-height="14px" x="12" y="11">****************</text></g></g><g transform="matrix(1,0,0,1,123,183.75)"><g transform="translate(0,0)"><g transform="translate(-166,-147.5) translate(43,-36.25) matrix(1,0,0,1,0,0)"><g><path fill="none" stroke="#ff9900" d="M 190 188.75 L 179.33333333333334 188.75 Q 169.33333333333334 188.75 159.33333333333334 188.75 L 158.66666666666666 188.75 Q 148.66666666666666 188.75 138.66666666666666 188.75 L 128 188.75" stroke-miterlimit="10" stroke-width="3"/></g></g></g></g><g transform="translate(0,0) matrix(1,0,0,1,9.999999999999993,170)"><g><g transform="translate(0,0) scale(1.1800000000000002,0.375)"><g><path fill="none" stroke="none" d="M 10 0 L 90 0 Q 100 0 100 10 L 100 90 Q 100 100 90 100 L 10 100 Q 0 100 0 90 L 0 10 Q 0 0 10 0 Z"/><g transform="scale(0.8474576271186439,2.6666666666666665)"><path fill="#b6d7a8" stroke="none" d="M 10 0 L 108.00000000000001 0 Q 118.00000000000001 0 118.00000000000001 10 L 118.00000000000001 27.5 Q 118.00000000000001 37.5 108.00000000000001 37.5 L 10 37.5 Q 0 37.5 0 27.5 L 0 10 Q 0 0 10 0 Z"/><path fill="none" stroke="rgb(0,0,0)" d="M 10 0 M 10 0 L 108.00000000000001 0 Q 118.00000000000001 0 118.00000000000001 10 L 118.00000000000001 27.5 Q 118.00000000000001 37.5 108.00000000000001 37.5 L 10 37.5 Q 0 37.5 0 27.5 L 0 10 Q 0 0 10 0 Z" stroke-opacity="0" stroke-miterlimit="10" stroke-width="2"/></g></g></g></g></g><g transform="matrix(1,0,0,1,14,182)"><g transform="translate(20,-4) matrix(1,0,0,1,0,0) translate(-20,4)"><g><rect fill="rgb(0,0,0)" stroke="none" x="0" y="0" width="110" height="14" fill-opacity="0"/></g></g><g transform="translate(20,-4) matrix(1,0,0,1,0,0) translate(-20,4)"><g><rect fill="rgb(0,0,0)" stroke="none" x="0" y="0" width="110" height="14" fill-opacity="0"/></g></g><g transform="translate(20,-4) matrix(1,0,0,1,0,0) translate(-20,4)"><g><rect fill="rgb(0,0,0)" stroke="none" x="10" y="-2" width="90" height="16" fill-opacity="0"/></g></g><g transform="translate(20,-4) matrix(1,0,0,1,0,0) translate(-20,4)"><g><rect fill="rgb(0,0,0)" stroke="none" x="10" y="-2" width="90" height="16" fill-opacity="0"/></g><text fill="rgb(0, 0, 0)" stroke="none" font-family="Helvetica" font-size="14px" font-style="normal" font-weight="bold" text-decoration="" line-height="14px" x="10" y="11">db_password</text></g></g><g transform="matrix(1,0,0,1,123,126.25)"><g transform="translate(0,0)"><g transform="translate(65.43860018001263,-235.5) translate(-188.43860018001263,109.25) matrix(1,0,0,1,0,0)"><g><path fill="none" stroke="#ff9900" d="M 128 131.25 L 138.66666666666666 131.25 Q 148.66666666666666 131.25 158.66666666666666 131.25 L 159.33333333333334 131.25 Q 169.33333333333334 131.25 179.33333333333334 131.25 L 190 131.25" stroke-miterlimit="10" stroke-width="3"/></g></g></g></g><g transform="translate(0,0) matrix(1,0,0,1,190,170)"><g><g transform="translate(0,0) scale(1.1800000000000002,0.375)"><g><path fill="none" stroke="none" d="M 10 0 L 90 0 Q 100 0 100 10 L 100 90 Q 100 100 90 100 L 10 100 Q 0 100 0 90 L 0 10 Q 0 0 10 0 Z"/><g transform="scale(0.8474576271186439,2.6666666666666665)"><path fill="#b6d7a8" stroke="none" d="M 10 0 L 108.00000000000001 0 Q 118.00000000000001 0 118.00000000000001 10 L 118.00000000000001 27.5 Q 118.00000000000001 37.5 108.00000000000001 37.5 L 10 37.5 Q 0 37.5 0 27.5 L 0 10 Q 0 0 10 0 Z"/><path fill="none" stroke="rgb(0,0,0)" d="M 10 0 M 10 0 L 108.00000000000001 0 Q 118.00000000000001 0 118.00000000000001 10 L 118.00000000000001 27.5 Q 118.00000000000001 37.5 108.00000000000001 37.5 L 10 37.5 Q 0 37.5 0 27.5 L 0 10 Q 0 0 10 0 Z" stroke-opacity="0" stroke-miterlimit="10" stroke-width="2"/></g></g></g></g></g><g transform="matrix(1,0,0,1,194,182)"><g transform="translate(12,-2) matrix(1,0,0,1,0,0) translate(-12,2)"><g><rect fill="rgb(0,0,0)" stroke="none" x="0" y="0" width="110" height="14" fill-opacity="0"/></g></g><g transform="translate(12,-2) matrix(1,0,0,1,0,0) translate(-12,2)"><g><rect fill="rgb(0,0,0)" stroke="none" x="0" y="0" width="110" height="14" fill-opacity="0"/></g></g><g transform="translate(12,-2) matrix(1,0,0,1,0,0) translate(-12,2)"><g><rect fill="rgb(0,0,0)" stroke="none" x="12" y="-2" width="87" height="16" fill-opacity="0"/></g><text fill="rgb(0, 0, 0)" stroke="none" font-family="Helvetica" font-size="14px" font-style="normal" font-weight="bold" text-decoration="" line-height="14px" x="12" y="11">****************</text></g></g><g transform="translate(0,0) matrix(1,0,0,1,190,230)"><g><g transform="translate(0,0) scale(1.1800000000000002,0.375)"><g><path fill="none" stroke="none" d="M 10 0 L 90 0 Q 100 0 100 10 L 100 90 Q 100 100 90 100 L 10 100 Q 0 100 0 90 L 0 10 Q 0 0 10 0 Z"/><g transform="scale(0.8474576271186439,2.6666666666666665)"><path fill="#b6d7a8" stroke="none" d="M 10 0 L 108.00000000000001 0 Q 118.00000000000001 0 118.00000000000001 10 L 118.00000000000001 27.5 Q 118.00000000000001 37.5 108.00000000000001 37.5 L 10 37.5 Q 0 37.5 0 27.5 L 0 10 Q 0 0 10 0 Z"/><path fill="none" stroke="rgb(0,0,0)" d="M 10 0 M 10 0 L 108.00000000000001 0 Q 118.00000000000001 0 118.00000000000001 10 L 118.00000000000001 27.5 Q 118.00000000000001 37.5 108.00000000000001 37.5 L 10 37.5 Q 0 37.5 0 27.5 L 0 10 Q 0 0 10 0 Z" stroke-opacity="0" stroke-miterlimit="10" stroke-width="2"/></g></g></g></g></g><g transform="matrix(1,0,0,1,194,242)"><g transform="translate(12,-2) matrix(1,0,0,1,0,0) translate(-12,2)"><g><rect fill="rgb(0,0,0)" stroke="none" x="0" y="0" width="110" height="14" fill-opacity="0"/></g></g><g transform="translate(12,-2) matrix(1,0,0,1,0,0) translate(-12,2)"><g><rect fill="rgb(0,0,0)" stroke="none" x="0" y="0" width="110" height="14" fill-opacity="0"/></g></g><g transform="translate(12,-2) matrix(1,0,0,1,0,0) translate(-12,2)"><g><rect fill="rgb(0,0,0)" stroke="none" x="12" y="-2" width="87" height="16" fill-opacity="0"/></g><text fill="rgb(0, 0, 0)" stroke="none" font-family="Helvetica" font-size="14px" font-style="normal" font-weight="bold" text-decoration="" line-height="14px" x="12" y="11">****************</text></g></g><g transform="translate(0,0) matrix(1,0,0,1,9.999999999999993,230)"><g><g transform="translate(0,0) scale(1.1800000000000002,0.375)"><g><path fill="none" stroke="none" d="M 10 0 L 90 0 Q 100 0 100 10 L 100 90 Q 100 100 90 100 L 10 100 Q 0 100 0 90 L 0 10 Q 0 0 10 0 Z"/><g transform="scale(0.8474576271186439,2.6666666666666665)"><path fill="#b6d7a8" stroke="none" d="M 10 0 L 108.00000000000001 0 Q 118.00000000000001 0 118.00000000000001 10 L 118.00000000000001 27.5 Q 118.00000000000001 37.5 108.00000000000001 37.5 L 10 37.5 Q 0 37.5 0 27.5 L 0 10 Q 0 0 10 0 Z"/><path fill="none" stroke="rgb(0,0,0)" d="M 10 0 M 10 0 L 108.00000000000001 0 Q 118.00000000000001 0 118.00000000000001 10 L 118.00000000000001 27.5 Q 118.00000000000001 37.5 108.00000000000001 37.5 L 10 37.5 Q 0 37.5 0 27.5 L 0 10 Q 0 0 10 0 Z" stroke-opacity="0" stroke-miterlimit="10" stroke-width="2"/></g></g></g></g></g><g transform="matrix(1,0,0,1,14,242)"><g transform="translate(28,-2) matrix(1,0,0,1,0,0) translate(-28,2)"><g><rect fill="rgb(0,0,0)" stroke="none" x="0" y="0" width="110" height="14" fill-opacity="0"/></g></g><g transform="translate(28,-2) matrix(1,0,0,1,0,0) translate(-28,2)"><g><rect fill="rgb(0,0,0)" stroke="none" x="0" y="0" width="110" height="14" fill-opacity="0"/></g></g><g transform="translate(28,-2) matrix(1,0,0,1,0,0) translate(-28,2)"><g><rect fill="rgb(0,0,0)" stroke="none" x="28" y="-2" width="55" height="16" fill-opacity="0"/></g><text fill="rgb(0, 0, 0)" stroke="none" font-family="Helvetica" font-size="14px" font-style="normal" font-weight="bold" text-decoration="" line-height="14px" x="28" y="11">db_host</text></g></g><g transform="matrix(1,0,0,1,123,243.75)"><g transform="translate(0,0)"><g transform="translate(-454,-174.5) translate(331,-69.25) matrix(1,0,0,1,0,0)"><g><path fill="none" stroke="#ff9900" d="M 128 248.75 L 138.66666666666663 248.75 Q 148.66666666666663 248.75 158.66666666666663 248.75 L 159.33333333333337 248.75 Q 169.33333333333337 248.75 179.33333333333337 248.75 L 190 248.75" stroke-miterlimit="10" stroke-width="3"/></g></g></g></g><g transform="matrix(1,0,0,1,12,84)"><g transform="translate(90,-4) matrix(1,0,0,1,0,0) translate(-90,4)"><g><rect fill="rgb(0,0,0)" stroke="none" x="0" y="0" width="115" height="14" fill-opacity="0"/></g></g><g transform="translate(90,-4) matrix(1,0,0,1,0,0) translate(-90,4)"><g><rect fill="rgb(0,0,0)" stroke="none" x="0" y="0" width="115" height="14" fill-opacity="0"/></g></g><g transform="translate(90,-4) matrix(1,0,0,1,0,0) translate(-90,4)"><g><rect fill="rgb(0,0,0)" stroke="none" x="45" y="-2" width="25" height="16" fill-opacity="0"/></g></g><g transform="translate(90,-4) matrix(1,0,0,1,0,0) translate(-90,4)"><g><rect fill="rgb(0,0,0)" stroke="none" x="45" y="-2" width="25" height="16" fill-opacity="0"/></g><text fill="rgb(255, 153, 0)" stroke="none" font-family="Helvetica" font-size="14px" font-style="normal" font-weight="bold" text-decoration="" line-height="14px" x="45" y="11">Key</text></g></g><g transform="matrix(1,0,0,1,190,84)"><g transform="translate(78,-4) matrix(1,0,0,1,0,0) translate(-78,4)"><g><rect fill="rgb(0,0,0)" stroke="none" x="0" y="0" width="115" height="14" fill-opacity="0"/></g></g><g transform="translate(78,-4) matrix(1,0,0,1,0,0) translate(-78,4)"><g><rect fill="rgb(0,0,0)" stroke="none" x="0" y="0" width="115" height="14" fill-opacity="0"/></g></g><g transform="translate(78,-4) matrix(1,0,0,1,0,0) translate(-78,4)"><g><rect fill="rgb(0,0,0)" stroke="none" x="39" y="-2" width="36" height="16" fill-opacity="0"/></g></g><g transform="translate(78,-4) matrix(1,0,0,1,0,0) translate(-78,4)"><g><rect fill="rgb(0,0,0)" stroke="none" x="39" y="-2" width="36" height="16" fill-opacity="0"/></g><text fill="rgb(255, 153, 0)" stroke="none" font-family="Helvetica" font-size="14px" font-style="normal" font-weight="bold" text-decoration="" line-height="14px" x="39" y="11">Value</text></g></g><g transform="translate(0,0) matrix(1,0,0,1,10,20)"><g><g transform="translate(0,0) scale(2.96,0.375)"><g><path fill="none" stroke="none" d="M 10 0 L 90 0 Q 100 0 100 10 L 100 90 Q 100 100 90 100 L 10 100 Q 0 100 0 90 L 0 10 Q 0 0 10 0 Z"/><g transform="scale(0.33783783783783783,2.6666666666666665)"><path fill="#b6d7a8" stroke="none" d="M 10 0 L 286 0 Q 296 0 296 10 L 296 27.5 Q 296 37.5 286 37.5 L 10 37.5 Q 0 37.5 0 27.5 L 0 10 Q 0 0 10 0 Z"/><path fill="none" stroke="rgb(0,0,0)" d="M 10 0 M 10 0 L 286 0 Q 296 0 296 10 L 296 27.5 Q 296 37.5 286 37.5 L 10 37.5 Q 0 37.5 0 27.5 L 0 10 Q 0 0 10 0 Z" stroke-opacity="0" stroke-miterlimit="10" stroke-width="2"/></g></g></g></g></g><g transform="matrix(1,0,0,1,18,32)"><g transform="translate(146,-4) matrix(1,0,0,1,0,0) translate(-146,4)"><g><rect fill="rgb(0,0,0)" stroke="none" x="0" y="0" width="281" height="14" fill-opacity="0"/></g></g><g transform="translate(146,-4) matrix(1,0,0,1,0,0) translate(-146,4)"><g><rect fill="rgb(0,0,0)" stroke="none" x="0" y="0" width="281" height="14" fill-opacity="0"/></g></g><g transform="translate(146,-4) matrix(1,0,0,1,0,0) translate(-146,4)"><g><rect fill="rgb(0,0,0)" stroke="none" x="73" y="-2" width="136" height="16" fill-opacity="0"/></g></g><g transform="translate(146,-4) matrix(1,0,0,1,0,0) translate(-146,4)"><g><rect fill="rgb(0,0,0)" stroke="none" x="73" y="-2" width="136" height="16" fill-opacity="0"/></g><text fill="rgb(0, 0, 0)" stroke="none" font-family="Helvetica" font-size="14px" font-style="normal" font-weight="bold" text-decoration="" line-height="14px" x="73" y="11">app</text><text fill="rgb(0, 0, 0)" stroke="none" font-family="Helvetica" font-size="14px" font-style="normal" font-weight="bold" text-decoration="" line-height="14px" x="97" y="11">/</text><text fill="rgb(0, 0, 0)" stroke="none" font-family="Helvetica" font-size="14px" font-style="normal" font-weight="bold" text-decoration="" line-height="14px" x="101" y="11">myapp</text><text fill="rgb(0, 0, 0)" stroke="none" font-family="Helvetica" font-size="14px" font-style="normal" font-weight="bold" text-decoration="" line-height="14px" x="146" y="11">-</text><text fill="rgb(0, 0, 0)" stroke="none" font-family="Helvetica" font-size="14px" font-style="normal" font-weight="bold" text-decoration="" line-height="14px" x="151" y="11">name</text><text fill="rgb(0, 0, 0)" stroke="none" font-family="Helvetica" font-size="14px" font-style="normal" font-weight="bold" text-decoration="" line-height="14px" x="187" y="11">/</text><text fill="rgb(0, 0, 0)" stroke="none" font-family="Helvetica" font-size="14px" font-style="normal" font-weight="bold" text-decoration="" line-height="14px" x="192" y="11">db</text></g></g></g></svg>